<svg xmlns="http://www.w3.org/2000/svg" viewBox="0 0 545 190" width="100%" height="100%">
  <rect width="100%" height="100%" fill="none" />
  <g fill="#1F2A85">
    <path d="M 98.7 137.9 C 91.1 140.2 82.5 137.9 76.8 132.2 C 61.6 117.0 46.4 101.8 31.1 86.6 C 24.3 79.8 15.6 77.2 6.5 78.4 C 3.1 78.8 0.7 76.5 1.5 73.1 C 5.5 56.4 17.5 44.8 32.1 36.3 C 48.7 26.6 66.8 21.0 85.9 20.0 C 90.9 19.7 94.6 22.1 96.6 26.7 C 105.7 47.9 114.7 69.1 123.8 90.3 C 125.7 94.8 124.9 99.4 121.2 103.1 C 114.3 110.0 107.5 116.8 100.6 123.7 C 100.1 124.2 99.6 124.7 98.7 125.5 C 99.6 127.8 100.4 129.8 101.2 131.9 C 101.4 132.5 101.5 133.2 101.4 133.8 C 101.0 135.5 99.9 136.9 98.7 137.9 Z" />
    <path d="M 119.8 181.7 C 109.9 181.7 100.6 179.9 91.9 174.9 C 78.3 167.1 69.1 154.9 63.4 140.1 C 61.5 135.1 63.2 131.0 67.5 128.5 C 80.2 121.2 92.9 113.8 105.7 106.5 C 111.4 103.2 117.6 103.1 123.4 106.3 C 141.2 116.1 159.0 125.9 176.7 135.7 C 182.2 138.8 184.2 144.3 182.6 150.3 C 178.6 165.1 169.3 175.4 154.7 179.6 C 143.2 182.9 131.3 181.8 119.8 181.7 Z" />
    <path d="M 223.3 98.0 C 220.8 98.0 218.4 98.1 216.0 98.0 C 205.2 97.4 195.4 93.6 186.8 86.8 C 171.7 75.0 156.5 63.3 141.4 51.5 C 137.4 48.4 135.1 44.5 136.1 39.4 C 138.9 25.1 146.9 14.5 159.8 7.3 C 171.6 0.7 184.2 -0.9 197.6 0.4 C 201.7 0.8 204.3 2.8 206.0 6.6 C 214.3 25.4 222.6 44.1 230.9 62.9 C 234.3 70.6 233.1 78.0 227.6 84.5 C 225.2 87.3 222.5 89.8 219.7 92.2 C 221.0 94.1 222.1 95.8 223.3 97.5 M 223.3 98.0 Z" />
    <path d="M 235.1 133.0 C 230.9 119.7 226.7 106.4 222.5 93.1 C 220.3 86.1 224.2 78.5 231.2 76.3 C 238.2 74.1 245.8 78.0 248.0 85.0 C 253.9 103.7 259.8 122.4 265.7 141.1 C 266.3 143.1 267.0 145.1 267.7 147.1 C 268.0 148.0 268.5 148.8 269.1 149.5 C 274.6 156.0 281.8 158.4 290.1 156.6 C 298.5 154.8 304.5 149.3 308.2 141.7 C 313.2 131.4 313.1 120.7 308.3 110.3 C 304.1 101.2 297.0 95.1 287.3 92.5 C 278.4 90.1 270.0 92.1 262.7 97.8 C 257.0 102.2 250.3 102.3 244.6 98.1 C 238.9 93.9 237.7 87.0 241.9 81.3 C 254.9 63.6 273.1 55.4 294.6 57.0 C 314.9 58.5 330.1 69.4 338.4 88.0 C 347.1 107.5 346.0 127.3 334.8 145.5 C 324.9 161.6 309.8 171.1 290.7 173.2 C 271.8 175.3 255.4 168.4 243.6 153.2 C 239.5 147.9 236.7 140.7 235.1 133.0 Z" />
    <path d="M 331.4 116.1 C 331.4 100.1 331.4 84.1 331.4 68.1 C 331.4 60.1 337.9 53.6 345.9 53.6 C 353.9 53.6 360.4 60.1 360.4 68.1 C 360.4 96.1 360.4 124.1 360.4 152.1 C 360.4 156.1 362.0 159.7 365.1 162.2 C 370.2 166.3 376.5 168.0 382.9 167.0 C 389.3 166.0 394.5 162.5 397.7 156.9 C 401.7 149.9 401.9 142.4 402.0 134.7 C 402.1 112.4 402.0 90.1 402.1 67.8 C 402.1 59.8 408.6 53.3 416.6 53.3 C 424.6 53.3 431.1 59.8 431.1 67.8 C 431.1 91.1 431.1 114.4 431.1 137.7 C 431.1 148.1 428.1 157.6 421.5 165.6 C 411.3 178.0 397.4 183.1 381.5 181.8 C 365.7 180.5 352.6 173.0 343.3 159.9 C 335.5 148.9 331.6 136.2 331.4 122.5 C 331.4 120.4 331.4 118.2 331.4 116.1 Z" />
    <path d="M 443.2 116.3 C 443.2 100.1 443.2 83.9 443.2 67.7 C 443.2 59.7 449.7 53.2 457.7 53.2 C 465.7 53.2 472.2 59.7 472.2 67.7 C 472.2 78.4 472.2 89.1 472.2 99.8 C 472.2 101.4 472.6 102.8 473.7 103.9 C 478.4 108.4 484.2 110.1 490.5 109.1 C 496.8 108.1 501.9 104.7 505.1 99.1 C 509.1 92.1 509.3 84.6 509.4 76.9 C 509.5 54.6 509.4 32.3 509.5 10.0 C 509.5 2.0 516.0 -4.5 524.0 -4.5 C 532.0 -4.5 538.5 2.0 538.5 10.0 C 538.5 48.3 538.5 86.6 538.5 124.9 C 538.5 135.3 535.5 144.8 528.9 152.8 C 518.7 165.2 504.8 170.3 488.9 169.0 C 473.1 167.7 460.0 160.2 450.7 147.1 C 442.9 136.1 439.0 123.4 438.8 109.7 C 438.8 107.6 438.8 105.4 438.8 103.3 C 438.8 107.6 438.8 111.9 438.8 116.3 Z" />
    <path d="M 521.8 38.6 C 512.4 38.6 504.8 31.0 504.8 21.6 C 504.8 12.2 512.4 4.6 521.8 4.6 C 531.2 4.6 538.8 12.2 538.8 21.6 C 538.8 31.0 531.2 38.6 521.8 38.6 M 521.8 8.1 C 514.3 8.1 508.3 14.1 508.3 21.6 C 508.3 29.1 514.3 35.1 521.8 35.1 C 529.3 35.1 535.3 29.1 535.3 21.6 C 535.3 14.1 529.3 8.1 521.8 8.1 M 517.4 13.6 L 523.5 13.6 C 526.5 13.6 528.5 14.9 528.5 17.6 C 528.5 19.8 527.1 21.1 524.8 21.5 L 529.0 28.6 L 524.8 28.6 L 521.1 22.1 L 517.4 22.1 L 517.4 28.6 L 513.9 28.6 L 513.9 13.6 L 517.4 13.6 Z M 517.4 19.3 L 523.0 19.3 C 524.3 19.3 525.1 18.7 525.1 17.8 C 525.1 16.9 524.3 16.4 523.0 16.4 L 517.4 16.4 L 517.4 19.3 Z" />
  </g>
</svg>
